<?xml version="1.0" encoding="utf-8"?>
<!-- Generator: Adobe Illustrator 26.5.0, SVG Export Plug-In . SVG Version: 6.00 Build 0)  -->
<svg version="1.1" id="Ebene_1" xmlns="http://www.w3.org/2000/svg" xmlns:xlink="http://www.w3.org/1999/xlink" x="0px" y="0px"
	 viewBox="0 0 144.5 279" style="enable-background:new 0 0 144.5 279;" xml:space="preserve">
<style type="text/css">
	.st0{fill:#E84412;}
</style>
<g>
	<g>
		<g>
			<path d="M48.79,10.37c-10.11,32.42-18.46,65.3-25.29,98.56c-6.83,33.26-12.72,66.74-21.57,99.55
				c-4.03,14.93,19.12,21.3,23.14,6.38c8.85-32.81,14.74-66.29,21.57-99.55c6.83-33.26,15.18-66.15,25.29-98.56
				C76.54,1.97,53.38-4.35,48.79,10.37L48.79,10.37z"/>
		</g>
	</g>
	<g>
		<g>
			<path d="M50.63,18.66c25.07,40.66,48.5,82.32,70.24,124.86c2.95,5.77,11.05,7.44,16.42,4.31c5.86-3.43,7.26-10.63,4.31-16.42
				C119.86,88.87,96.43,47.22,71.35,6.55C63.26-6.57,42.49,5.47,50.63,18.66L50.63,18.66z"/>
		</g>
	</g>
	<g>
		<g>
			<path class="st0" d="M126.06,127.26c-13.27,8.22-27.19,15.29-41.79,20.81c-6.06,2.29-10.21,8.1-8.38,14.76
				c1.6,5.81,8.67,10.69,14.76,8.38c16.55-6.26,32.48-13.91,47.53-23.23C151.28,139.87,139.24,119.1,126.06,127.26L126.06,127.26z"
				/>
		</g>
	</g>
	<g>
		<g>
			<path class="st0" d="M73.07,163.86c7.32,22.91,14.64,45.83,21.95,68.74c1.97,6.17,8.33,10.15,14.76,8.38
				c6.07-1.67,10.36-8.56,8.38-14.76c-7.32-22.91-14.64-45.83-21.95-68.74c-1.97-6.17-8.33-10.15-14.76-8.38
				C75.38,150.77,71.09,157.66,73.07,163.86L73.07,163.86z"/>
		</g>
	</g>
	<g>
		<g>
			<path class="st0" d="M100.27,219.53c-26.8,12.04-53.61,24.08-80.41,36.11c-5.91,2.66-7.33,11.25-4.31,16.42
				c3.56,6.08,10.48,6.97,16.42,4.3c26.8-12.04,53.61-24.08,80.41-36.11c5.91-2.66,7.33-11.25,4.31-16.42
				C113.13,217.75,106.2,216.86,100.27,219.53L100.27,219.53z"/>
		</g>
	</g>
</g>
</svg>
