<?xml version="1.0" encoding="utf-8"?>
<!-- Generator: Adobe Illustrator 26.5.0, SVG Export Plug-In . SVG Version: 6.00 Build 0)  -->
<svg version="1.1" id="Ebene_1" xmlns="http://www.w3.org/2000/svg" xmlns:xlink="http://www.w3.org/1999/xlink" x="0px" y="0px"
	 viewBox="0 0 208 58" style="enable-background:new 0 0 208 58;" xml:space="preserve">
<style type="text/css">
	.st0{fill:#B2B2B2;}
	.st1{fill:#E8BF6A;}
	.st2{fill:#FFFFFF;}
</style>
<g>
	<g>
		<path class="st0" d="M40.1,47.5c0-1.3,0.4-2.3,1.1-3c0.7-0.7,1.7-1.1,2.9-1.1c1.3,0,2.3,0.4,3,1.1c0.7,0.7,1.1,1.7,1.1,3
			c0,1.2-0.4,2.1-1.1,2.9c-0.7,0.8-1.7,1.1-3,1.1c-1.2,0-2.2-0.4-2.9-1.1C40.5,49.6,40.1,48.6,40.1,47.5z"/>
		<path class="st1" d="M78,50.8v-20c0-0.8,0-1.7-0.1-2.4c-0.1-0.8-0.2-1.5-0.4-2.1c-0.2-0.6-0.5-1.1-1-1.5c-0.4-0.4-1-0.5-1.7-0.5
			c-1.4,0-2.5,0.6-3.5,1.7c-0.9,1.1-1.7,2.5-2.1,4.2v20.7h-4.6V20.7h3.1l0.9,3.7h0.2c0.4-0.6,0.8-1.2,1.2-1.7c0.4-0.5,0.8-1,1.3-1.4
			c0.5-0.4,1.1-0.7,1.8-0.9c0.7-0.2,1.5-0.3,2.6-0.3c0.6,0,1.2,0.1,1.9,0.3c0.6,0.2,1.2,0.5,1.8,0.8c0.5,0.4,1,0.9,1.4,1.5
			c0.4,0.6,0.7,1.4,0.8,2.3c0.9-1.6,2-2.8,3.1-3.7c1.1-0.9,2.7-1.3,4.7-1.3c1.3,0,2.4,0.2,3.2,0.7c0.8,0.4,1.5,1.1,1.9,1.9
			c0.5,0.8,0.8,1.8,1,2.9c0.2,1.1,0.3,2.4,0.3,3.8v21.5h-4.6V30.3c0-0.8,0-1.6-0.1-2.4c-0.1-0.7-0.2-1.4-0.5-2
			c-0.2-0.6-0.5-1-0.9-1.3c-0.4-0.3-0.9-0.5-1.5-0.5c-1.4,0-2.6,0.6-3.6,1.7c-1,1.1-1.7,2.7-2.2,4.8v20.1H78z"/>
		<path class="st1" d="M102.3,50.8v-4h8.1v-22h-8.1v-4h11.3l1,3.9h0.3c1.4-1.2,2.9-2.3,4.6-3.2c1.7-0.9,3.7-1.3,6-1.3
			c1.4,0,2.5,0.3,3.3,0.8c0.8,0.5,1.5,1.3,1.9,2.3c0.5,1,0.8,2.2,0.9,3.6c0.2,1.4,0.2,3,0.2,4.8l-4.2,0.1c0-2.5-0.3-4.4-0.8-5.6
			c-0.5-1.2-1.4-1.8-2.7-1.8c-1.2,0-2.4,0.2-3.4,0.5c-1,0.4-1.9,0.8-2.6,1.3c-0.7,0.5-1.4,1-1.9,1.6c-0.5,0.5-0.9,1-1.1,1.3v17.7
			h11.6v4H102.3z"/>
		<path class="st1" d="M152.6,44.9h0.7l9.4-24.2h5.2l-12.7,30.1h-5.2L137,20.7h5.5L152.6,44.9z"/>
	</g>
	<path class="st2" d="M8.2,39.8c0-2.9-0.7-5-2.2-6.1C4.6,32.6,2.5,32-0.2,32v-6c2.8,0,4.9-0.6,6.3-1.8c1.4-1.2,2.1-3.1,2.1-5.7v-7.7
		c0-3,0.8-5.4,2.4-7.2C12.2,1.9,14.5,1,17.7,1h9v6.6h-4.8c-1.2,0-2.1,0.1-2.9,0.2c-0.8,0.2-1.4,0.5-1.9,0.9c-0.5,0.4-0.8,1.1-1,1.8
		c-0.2,0.8-0.3,1.8-0.3,3v6.9c0,2.6-0.7,4.6-2.2,5.9c-1.4,1.3-3.3,2-5.7,2.2v0.6c2.3,0.2,4.2,0.9,5.6,2.3c1.5,1.4,2.2,3.4,2.2,6v6.9
		c0,1.2,0.1,2.3,0.3,3c0.2,0.8,0.5,1.4,1,1.8c0.5,0.4,1.1,0.7,1.9,0.9c0.8,0.2,1.8,0.2,2.9,0.2h4.7V57h-9c-3,0-5.3-0.8-7-2.4
		c-1.6-1.6-2.5-4-2.5-7.3V39.8z"/>
	<path class="st2" d="M199.8,47.3c0,3.2-0.8,5.7-2.5,7.3c-1.6,1.6-4,2.4-7,2.4h-9v-6.6h4.8c1.2,0,2.1-0.1,2.9-0.2
		c0.8-0.2,1.4-0.5,1.9-0.9c0.5-0.4,0.8-1.1,1-1.8c0.2-0.8,0.3-1.8,0.3-3v-6.9c0-2.6,0.7-4.6,2.2-6c1.5-1.4,3.3-2.2,5.6-2.3v-0.6
		c-2.3-0.2-4.2-0.9-5.7-2.2c-1.4-1.3-2.2-3.2-2.2-5.9v-6.9c0-1.2-0.1-2.3-0.3-3c-0.2-0.8-0.6-1.4-1.1-1.8c-0.5-0.4-1.1-0.7-1.9-0.9
		c-0.8-0.2-1.7-0.2-2.9-0.2h-4.8V1h9c3.1,0,5.5,0.9,7.1,2.6c1.6,1.7,2.4,4.1,2.4,7.2v7.7c0,2.6,0.7,4.6,2.1,5.7
		c1.4,1.2,3.5,1.8,6.3,1.8v6c-2.7,0-4.8,0.6-6.3,1.7c-1.4,1.1-2.2,3.1-2.2,6.1V47.3z"/>
</g>
</svg>
